<?xml version="1.0" encoding="UTF-8" standalone="no"?>
<!DOCTYPE svg PUBLIC "-//W3C//DTD SVG 20010904//EN" "http://www.w3.org/TR/2001/REC-SVG-20010904/DTD/svg10.dtd">
<!-- <svg
   viewBox="0 0 128 128"
   version="1.0"
   width="128"
   height="128"> -->
<!-- width="38.000000pt" height="38.000000pt" -->
<!-- width="128px" height="128px" -->
   
<svg version="1.0" xmlns="http://www.w3.org/2000/svg"
 width="38.000000pt" height="38.000000pt" viewBox="0 0 128.000000 128.000000"
 preserveAspectRatio="xMidYMid meet">
   <path
       d="M 61.714844,54.773437 H 37.046875 V 38.25 q 0,-7.207031 -0.820313,-8.964844 -0.761718,-1.816406 -3.457031,-1.816406 -3.046875,0 -3.867187,2.167969 -0.820313,2.167968 -0.820313,9.375 v 44.0625 q 0,6.914062 0.820313,9.023437 0.820312,2.109375 3.691406,2.109375 2.753906,0 3.574219,-2.109375 0.878906,-2.109375 0.878906,-9.902344 V 70.300781 h 24.667969 v 3.691406 q 0,14.707032 -2.109375,20.859375 -2.050782,6.152348 -9.199219,10.781248 -7.089844,4.62891 -17.519531,4.62891 -10.839844,0 -17.871094,-3.92578 Q 7.984375,102.41016 5.6992187,95.496094 3.4140625,88.523437 3.4140625,74.578125 V 46.863281 q 0,-10.253906 0.703125,-15.351562 0.703125,-5.15625 4.1601563,-9.902344 3.5156252,-4.746094 9.6679682,-7.441406 6.210938,-2.753906 14.238282,-2.753906 10.898437,0 17.988281,4.21875 7.089844,4.218749 9.316406,10.546874 2.226563,6.269532 2.226563,19.570313 z M 93.53125,13.40625 v 21.328125 q 3.046875,-2.8125 6.5625,-4.21875 3.57422,-1.40625 7.61719,-1.40625 6.21094,0 10.54687,3.164062 4.39453,3.164063 5.33203,7.324219 0.9961,4.101563 0.9961,15.058594 v 53.61328 H 100.91406 V 53.542969 q 0,-6.796875 -0.70312,-8.730469 -0.644534,-1.933594 -2.988284,-1.933594 -2.167969,0 -2.929687,1.992188 -0.761719,1.992187 -0.761719,7.910156 v 55.48828 H 69.859375 V 13.40625 Z"
       style="fill-opacity:0.77;stroke-width:1.175;stroke-linecap:round;stroke-linejoin:round;paint-order:stroke fill markers" />
   <path
       style="fill:#000000;fill-opacity:0.77;stroke:#000000;stroke-width:6.97753;stroke-linecap:butt;stroke-linejoin:round;stroke-dasharray:none;stroke-opacity:0.77;paint-order:stroke fill markers"
       d="M 3,114.31209 H 125" />
   <path
       style="fill:#000000;fill-opacity:0.77;stroke:#000000;stroke-width:6.97753;stroke-linecap:butt;stroke-linejoin:round;stroke-dasharray:none;stroke-opacity:0.77;paint-order:stroke fill markers"
       d="M 3.0000028,127.23534 H 125" />
</svg>
